<?xml version="1.0" encoding="utf-8"?>
<svg xmlns="http://www.w3.org/2000/svg" style="margin: auto; display: block; shape-rendering: auto; animation-play-state: running; animation-delay: 0s; background: none;" width="281" height="108" preserveAspectRatio="xMidYMid">
<style type="text/css" style="animation-play-state: running; animation-delay: 0s;">
  text {
    text-anchor: middle; font-size: 40px; opacity: 0;
  }
</style>
<g style="transform-origin: 140.5px 54px; transform: scale(1); animation-play-state: running; animation-delay: 0s;">
<g transform="translate(140.5,54)" style="animation-play-state: running; animation-delay: 0s;">
  <g transform="translate(0,0)" style="animation-play-state: running; animation-delay: 0s;"><g class="path" style="opacity: 1; transform-origin: -100.28px -2.42554px; animation: 1s linear -0.609231s infinite normal forwards running fade-99561957-6671-46cf-bc2d-5b5aac5a73bf;"><path d="M11.40 0.44L11.40 0.44L11.40 0.44Q8.56 0.44 3.20 0L3.20 0L3.68-9.72L3.20-27.60L13.88-27.60L13.88-27.60Q19.28-27.60 22.32-24.36L22.32-24.36L22.32-24.36Q25.36-21.12 25.36-15.36L25.36-15.36L25.36-15.36Q25.36-8.08 21.60-3.82L21.60-3.82L21.60-3.82Q17.84 0.44 11.40 0.44zM12.44-23.28L12.44-23.28L12.44-23.28Q9.80-23.28 8.72-23.24L8.72-23.24L8.32-10.40L8.60-3.92L8.60-3.92Q11.96-3.68 13.12-3.68L13.12-3.68L13.12-3.68Q16.28-3.68 18.10-6.24L18.10-6.24L18.10-6.24Q19.92-8.80 19.92-13.68L19.92-13.68L19.92-13.68Q19.92-18.56 18.14-20.92L18.14-20.92L18.14-20.92Q16.36-23.28 12.44-23.28" fill="#f3b72e" stroke="none" stroke-width="none" transform="translate(-114.55999755859375,11.154458148662856)" style="fill: rgb(243, 183, 46); animation-play-state: running; animation-delay: 0s;"></path></g><g class="path" style="opacity: 1; transform-origin: -78.72px 0.914458px; animation: 1s linear -0.558462s infinite normal forwards running fade-99561957-6671-46cf-bc2d-5b5aac5a73bf;"><path d="M32.88 0L32.88 0Q30.52 0 29.02-1.50L29.02-1.50L29.02-1.50Q27.52-3 27.52-5.54L27.52-5.54L27.52-5.54Q27.52-8.08 29.84-9.94L29.84-9.94L29.84-9.94Q32.16-11.80 35.48-11.80L35.48-11.80L38.20-11.80L38.20-12.48L38.20-12.48Q38.20-14.44 37.40-15.16L37.40-15.16L37.40-15.16Q36.60-15.88 34.40-15.88L34.40-15.88L34.40-15.88Q33.48-15.88 32.22-15.50L32.22-15.50L32.22-15.50Q30.96-15.12 29.40-14.32L29.40-14.32L28.24-17.48L28.24-17.48Q29.96-18.68 32.42-19.64L32.42-19.64L32.42-19.64Q34.88-20.60 36.48-20.60L36.48-20.60L36.48-20.60Q42.76-20.60 42.76-14.52L42.76-14.52L42.76-6.68L42.76-6.68Q42.76-4.44 44.16-1.68L44.16-1.68L39.92 0.12L39.92 0.12Q38.92-1.80 38.44-3.32L38.44-3.32L38.44-3.32Q36.24 0 32.88 0L32.88 0zM34.56-4.08L34.56-4.08L34.56-4.08Q36.16-4.08 38.20-5.72L38.20-5.72L38.20-8.40L38.20-8.40Q36.08-8.88 34.76-8.88L34.76-8.88L34.76-8.88Q32.24-8.88 32.24-6.64L32.24-6.64L32.24-6.64Q32.24-5.48 32.88-4.78L32.88-4.78L32.88-4.78Q33.52-4.08 34.56-4.08" fill="#f3b72e" stroke="none" stroke-width="none" transform="translate(-114.55999755859375,11.154458148662856)" style="fill: rgb(56, 105, 197); animation-play-state: running; animation-delay: 0s;"></path></g><g class="path" style="opacity: 1; transform-origin: -59.96px 1.03446px; animation: 1s linear -0.507692s infinite normal forwards running fade-99561957-6671-46cf-bc2d-5b5aac5a73bf;"><path d="M52.96-11.52L54.44-5L54.96-5L56.28-10.48L58.44-20.36L63.40-19.76L60.40-9.84L57.88-0.48L51.04 0.12L48.68-9.60L45.80-19.32L51.24-20.32L52.96-11.52" fill="#f3b72e" stroke="none" stroke-width="none" transform="translate(-114.55999755859375,11.154458148662856)" style="fill: rgb(70, 134, 244); animation-play-state: running; animation-delay: 0s;"></path></g><g class="path" style="opacity: 1; transform-origin: -45.86px 0.974458px; animation: 1s linear -0.456923s infinite normal forwards running fade-99561957-6671-46cf-bc2d-5b5aac5a73bf;"><path d="M66.04-19.36L71.40-20.36L70.92-10.40L71.36-1L66.00 0L66.48-9.72L66.04-19.36" fill="#f3b72e" stroke="none" stroke-width="none" transform="translate(-114.55999755859375,11.154458148662856)" style="fill: rgb(243, 183, 46); animation-play-state: running; animation-delay: 0s;"></path></g><g class="path" style="opacity: 1; transform-origin: -45.68px -15.2455px; animation: 1s linear -0.406154s infinite normal forwards running fade-99561957-6671-46cf-bc2d-5b5aac5a73bf;"><path d="M65.76-26.22L65.76-26.22L65.76-26.22Q65.76-27.56 66.80-28.62L66.80-28.62L66.80-28.62Q67.84-29.68 69.20-29.68L69.20-29.68L69.20-29.68Q70.56-29.68 71.28-28.94L71.28-28.94L71.28-28.94Q72.00-28.20 72.00-26.72L72.00-26.72L72.00-26.72Q72.00-25.24 70.98-24.18L70.98-24.18L70.98-24.18Q69.96-23.12 68.62-23.12L68.62-23.12L68.62-23.12Q67.28-23.12 66.52-24L66.52-24L66.52-24Q65.76-24.88 65.76-26.22" fill="#f3b72e" stroke="none" stroke-width="none" transform="translate(-114.55999755859375,11.154458148662856)" style="fill: rgb(56, 105, 197); animation-play-state: running; animation-delay: 0s;"></path></g><g class="path" style="opacity: 1; transform-origin: -30.44px -4.32554px; animation: 1s linear -0.355385s infinite normal forwards running fade-99561957-6671-46cf-bc2d-5b5aac5a73bf;"><path d="M86.40-20.20L86.40-20.20L86.40-20.20Q89.08-20.20 90.76-17.88L90.76-17.88L90.76-17.88Q92.44-15.56 92.44-11.92L92.44-11.92L92.44-11.92Q92.44-6.68 89.70-3.34L89.70-3.34L89.70-3.34Q86.96 0 82.60 0L82.60 0L82.60 0Q80.60 0 75.88-0.64L75.88-0.64L76.28-9.72L75.80-29.96L81.28-30.96L80.76-20.64L80.76-16.32L80.76-16.32Q81.20-16.96 81.84-17.68L81.84-17.68L81.84-17.68Q82.48-18.40 83.84-19.30L83.84-19.30L83.84-19.30Q85.20-20.20 86.40-20.20zM84.84-15L84.84-15L84.84-15Q83.00-15 80.76-13.88L80.76-13.88L80.76-10.40L81.00-4.52L81.00-4.52Q82.68-4.32 84.16-4.32L84.16-4.32L84.16-4.32Q88.00-4.32 88.00-9.66L88.00-9.66L88.00-9.66Q88.00-15 84.84-15" fill="#f3b72e" stroke="none" stroke-width="none" transform="translate(-114.55999755859375,11.154458148662856)" style="fill: rgb(70, 134, 244); animation-play-state: running; animation-delay: 0s;"></path></g><g class="path" style="opacity: 1; transform-origin: -11.84px 0.914458px; animation: 1s linear -0.304615s infinite normal forwards running fade-99561957-6671-46cf-bc2d-5b5aac5a73bf;"><path d="M99.76 0L99.76 0Q97.40 0 95.90-1.50L95.90-1.50L95.90-1.50Q94.40-3 94.40-5.54L94.40-5.54L94.40-5.54Q94.40-8.08 96.72-9.94L96.72-9.94L96.72-9.94Q99.04-11.80 102.36-11.80L102.36-11.80L105.08-11.80L105.08-12.48L105.08-12.48Q105.08-14.44 104.28-15.16L104.28-15.16L104.28-15.16Q103.48-15.88 101.28-15.88L101.28-15.88L101.28-15.88Q100.36-15.88 99.10-15.50L99.10-15.50L99.10-15.50Q97.84-15.12 96.28-14.32L96.28-14.32L95.12-17.48L95.12-17.48Q96.84-18.68 99.30-19.64L99.30-19.64L99.30-19.64Q101.76-20.60 103.36-20.60L103.36-20.60L103.36-20.60Q109.64-20.60 109.64-14.52L109.64-14.52L109.64-6.68L109.64-6.68Q109.64-4.44 111.04-1.68L111.04-1.68L106.80 0.12L106.80 0.12Q105.80-1.80 105.32-3.32L105.32-3.32L105.32-3.32Q103.12 0 99.76 0L99.76 0zM101.44-4.08L101.44-4.08L101.44-4.08Q103.04-4.08 105.08-5.72L105.08-5.72L105.08-8.40L105.08-8.40Q102.96-8.88 101.64-8.88L101.64-8.88L101.64-8.88Q99.12-8.88 99.12-6.64L99.12-6.64L99.12-6.64Q99.12-5.48 99.76-4.78L99.76-4.78L99.76-4.78Q100.40-4.08 101.44-4.08" fill="#f3b72e" stroke="none" stroke-width="none" transform="translate(-114.55999755859375,11.154458148662856)" style="fill: rgb(243, 183, 46); animation-play-state: running; animation-delay: 0s;"></path></g><g class="path" style="opacity: 1; transform-origin: 5.6px 0.974458px; animation: 1s linear -0.253846s infinite normal forwards running fade-99561957-6671-46cf-bc2d-5b5aac5a73bf;"><path d="M114.08-19.32L114.08-19.32L118.92-20.36L118.92-20.36Q119.28-17.28 119.40-14.52L119.40-14.52L119.40-14.52Q123.04-20.16 126.24-20.16L126.24-20.16L125.80-13.92L125.80-13.92Q123.48-13.92 122.14-13.50L122.14-13.50L122.14-13.50Q120.80-13.08 119.40-11.84L119.40-11.84L119.40-10.40L119.84-1L114.48 0L114.96-9.72L114.96-9.72Q114.80-15.08 114.08-19.32" fill="#f3b72e" stroke="none" stroke-width="none" transform="translate(-114.55999755859375,11.154458148662856)" style="fill: rgb(56, 105, 197); animation-play-state: running; animation-delay: 0s;"></path></g><g class="path" style="opacity: 1; transform-origin: 31.84px -2.74554px; animation: 1s linear -0.203077s infinite normal forwards running fade-99561957-6671-46cf-bc2d-5b5aac5a73bf;"><path d="M151.32-26.80L157.00-27.80L156.44-10.40L156.92 0L151.32 0L151.80-9.72L151.72-11.84L140.96-11.84L140.92-10.40L141.40 0L135.80 0L136.28-9.72L135.80-26.80L141.48-27.80L141.08-16.08L151.60-16.08L151.32-26.80" fill="#f3b72e" stroke="none" stroke-width="none" transform="translate(-114.55999755859375,11.154458148662856)" style="fill: rgb(70, 134, 244); animation-play-state: running; animation-delay: 0s;"></path></g><g class="path" style="opacity: 1; transform-origin: 55.28px 1.07446px; animation: 1s linear -0.152308s infinite normal forwards running fade-99561957-6671-46cf-bc2d-5b5aac5a73bf;"><path d="M161.32-8.36L161.32-8.36Q161.32-13.48 164.08-17.04L164.08-17.04L164.08-17.04Q166.84-20.60 170.54-20.60L170.54-20.60L170.54-20.60Q174.24-20.60 176.30-18.20L176.30-18.20L176.30-18.20Q178.36-15.80 178.36-11.84L178.36-11.84L178.36-11.84Q178.36-6.56 175.70-3.06L175.70-3.06L175.70-3.06Q173.04 0.44 169.00 0.44L169.00 0.44L169.00 0.44Q165.68 0.44 163.50-2.06L163.50-2.06L163.50-2.06Q161.32-4.56 161.32-8.36L161.32-8.36zM173.88-9.76L173.88-9.76L173.88-9.76Q173.88-15.56 169.92-15.56L169.92-15.56L169.92-15.56Q165.80-15.56 165.80-10.12L165.80-10.12L165.80-10.12Q165.80-7.28 166.96-5.68L166.96-5.68L166.96-5.68Q168.12-4.08 170.02-4.08L170.02-4.08L170.02-4.08Q171.92-4.08 172.90-5.54L172.90-5.54L172.90-5.54Q173.88-7 173.88-9.76" fill="#f3b72e" stroke="none" stroke-width="none" transform="translate(-114.55999755859375,11.154458148662856)" style="fill: rgb(243, 183, 46); animation-play-state: running; animation-delay: 0s;"></path></g><g class="path" style="opacity: 1; transform-origin: 75.52px 1.03446px; animation: 1s linear -0.101538s infinite normal forwards running fade-99561957-6671-46cf-bc2d-5b5aac5a73bf;"><path d="M186.60 0L186.60 0L186.60 0Q184.44 0 183.10-1.42L183.10-1.42L183.10-1.42Q181.76-2.84 181.76-5.16L181.76-5.16L182.00-9.76L181.56-19.36L186.92-20.36L186.40-8.20L186.40-8.20Q186.40-6.48 187.02-5.68L187.02-5.68L187.02-5.68Q187.64-4.88 189.00-4.88L189.00-4.88L189.00-4.88Q190.36-4.88 192.76-6.24L192.76-6.24L192.76-8.64L192.32-19.16L197.72-20.16L197.24-10.16L197.28-6.88L197.28-6.88Q197.28-4.32 198.60-1.72L198.60-1.72L194.44 0.12L194.44 0.12Q193.12-2.48 192.84-4.04L192.84-4.04L192.84-4.04Q189.24 0 186.60 0" fill="#f3b72e" stroke="none" stroke-width="none" transform="translate(-114.55999755859375,11.154458148662856)" style="fill: rgb(56, 105, 197); animation-play-state: running; animation-delay: 0s;"></path></g><g class="path" style="opacity: 1; transform-origin: 92.92px 1.07446px; animation: 1s linear -0.0507692s infinite normal forwards running fade-99561957-6671-46cf-bc2d-5b5aac5a73bf;"><path d="M208.24-3.72L208.24-3.72L208.24-3.72Q210.32-3.72 210.32-5.56L210.32-5.56L210.32-5.56Q210.32-6.20 209.42-6.76L209.42-6.76L209.42-6.76Q208.52-7.32 207.22-7.88L207.22-7.88L207.22-7.88Q205.92-8.44 204.62-9.14L204.62-9.14L204.62-9.14Q203.32-9.84 202.42-11.08L202.42-11.08L202.42-11.08Q201.52-12.32 201.52-13.92L201.52-13.92L201.52-13.92Q201.52-16.60 203.88-18.60L203.88-18.60L203.88-18.60Q206.24-20.60 209.32-20.60L209.32-20.60L209.32-20.60Q210.76-20.60 212.14-20.26L212.14-20.26L212.14-20.26Q213.52-19.92 214.80-19.20L214.80-19.20L212.12-14.32L212.12-14.32Q211.84-14.56 211.40-14.92L211.40-14.92L211.40-14.92Q210.96-15.28 209.74-15.86L209.74-15.86L209.74-15.86Q208.52-16.44 207.58-16.44L207.58-16.44L207.58-16.44Q206.64-16.44 206.14-16.02L206.14-16.02L206.14-16.02Q205.64-15.60 205.64-14.86L205.64-14.86L205.64-14.86Q205.64-14.12 207.02-13.38L207.02-13.38L207.02-13.38Q208.40-12.64 210.04-12.02L210.04-12.02L210.04-12.02Q211.68-11.40 213.06-9.98L213.06-9.98L213.06-9.98Q214.44-8.56 214.44-6.60L214.44-6.60L214.44-6.60Q214.44-3.80 212.14-1.68L212.14-1.68L212.14-1.68Q209.84 0.44 206.84 0.44L206.84 0.44L206.84 0.44Q204.92 0.44 203.26-0.40L203.26-0.40L203.26-0.40Q201.60-1.24 200.88-2.08L200.88-2.08L200.16-2.92L203.32-6.60L203.32-6.60Q203.56-6.28 204.00-5.80L204.00-5.80L204.00-5.80Q204.44-5.32 205.74-4.52L205.74-4.52L205.74-4.52Q207.04-3.72 208.24-3.72" fill="#f3b72e" stroke="none" stroke-width="none" transform="translate(-114.55999755859375,11.154458148662856)" style="fill: rgb(70, 134, 244); animation-play-state: running; animation-delay: 0s;"></path></g><g class="path" style="opacity: 1; transform-origin: 109.94px 1.07446px; animation: 1s linear 0s infinite normal forwards running fade-99561957-6671-46cf-bc2d-5b5aac5a73bf;"><path d="M225.16-4.08L225.16-4.08L225.16-4.08Q226.32-4.08 227.60-4.68L227.60-4.68L227.60-4.68Q228.88-5.28 229.60-5.88L229.60-5.88L230.32-6.48L232.16-4.24L232.16-4.24Q231.76-3.56 230.92-2.68L230.92-2.68L230.92-2.68Q230.08-1.80 229.22-1.18L229.22-1.18L229.22-1.18Q228.36-0.56 226.94-0.06L226.94-0.06L226.94-0.06Q225.52 0.44 224 0.44L224 0.44L224 0.44Q220.76 0.44 218.72-2.02L218.72-2.02L218.72-2.02Q216.68-4.48 216.68-8.36L216.68-8.36L216.68-8.36Q216.68-13.24 219.52-16.92L219.52-16.92L219.52-16.92Q222.36-20.60 226.16-20.60L226.16-20.60L226.16-20.60Q229.08-20.60 230.70-18.96L230.70-18.96L230.70-18.96Q232.32-17.32 232.32-14.36L232.32-14.36L232.32-14.36Q232.32-12.60 231.72-10.36L231.72-10.36L230.92-9.52L220.92-8.60L220.92-8.60Q221.60-4.08 225.16-4.08zM225.16-16.48L225.16-16.48L225.16-16.48Q223.40-16.48 222.20-15.06L222.20-15.06L222.20-15.06Q221.00-13.64 220.80-11.44L220.80-11.44L227.60-12.28L227.60-12.28Q227.72-13.20 227.72-13.80L227.72-13.80L227.72-13.80Q227.72-16.48 225.16-16.48" fill="#f3b72e" stroke="none" stroke-width="none" transform="translate(-114.55999755859375,11.154458148662856)" style="fill: rgb(243, 183, 46); animation-play-state: running; animation-delay: 0s;"></path></g></g>
</g>
</g>
<style id="fade-99561957-6671-46cf-bc2d-5b5aac5a73bf" data-anikit="">@keyframes fade-99561957-6671-46cf-bc2d-5b5aac5a73bf
{
  0% {
    animation-timing-function: cubic-bezier(0.2057,0.573,0.3723,0.9184);
    opacity: 1;
  }
  100% {
    opacity: 0;
  }
}</style></svg>